<svg version="1.2" xmlns="http://www.w3.org/2000/svg" viewBox="0 0 1475 657" width="1475" height="657"><style>.a{fill:#dec89d}</style><g style="opacity:.5"><path class="a" d="m1461 138.9c-2.3-4.4-4.4-8-6-11.8-5.7-13.2-15.9-21-29.6-24.5-14.2-3.6-24.1-11.6-28.5-25.9-1.1-3.4-0.4-5.6 2.3-7.9 8.6-7.3 18.3-7.4 27.9-3.4 20.4 8.5 34.3 23.6 40.8 44.7 3.2 10.1 2.1 19.9-6.9 28.8zm-70.5-59.9c1.9 4.1 3.4 7.1 4.8 10.2 4.2 9.7 11.3 16.6 21.7 18.4 19.6 3.2 30.3 15.8 37.7 32.7 1.8 4 0.7 5.8-2.6 7.6-7.3 3.9-15.1 4.3-22.7 1.8-23.2-7.6-37.6-23.6-43-47.3-1.8-7.9-0.9-15.7 4.1-23.4z"/><path class="a" d="m37.9 577.5c4-2.9 7.2-5.6 10.7-7.8 12.1-7.7 18.2-19 19.4-33.1 1.3-14.6 7.7-25.6 21.1-32.3 3.2-1.6 5.5-1.3 8.1 1 8.7 7.3 10.3 16.9 7.9 27-5.2 21.5-17.8 37.6-37.7 47.5-9.4 4.7-19.3 5.1-29.5-2.3zm47.9-79.1c-3.7 2.5-6.5 4.5-9.3 6.3-8.9 5.8-14.7 13.8-14.7 24.4 0 19.9-10.8 32.4-26.3 42.4-3.7 2.4-5.6 1.7-7.9-1.3-5.1-6.6-6.7-14.2-5.4-22.1 3.8-24.2 17.3-40.9 39.8-50 7.5-3.1 15.4-3.4 23.8 0.3z"/><path class="a" d="m1170.2 547.1c4-2.8 7.3-5.4 10.8-7.5 12.4-7.4 18.8-18.5 20.4-32.5 1.7-14.6 8.4-25.4 22-31.7 3.2-1.5 5.5-1.1 8.1 1.2 8.4 7.6 9.8 17.2 7.1 27.2-5.8 21.4-18.9 37.1-39 46.4-9.6 4.4-19.4 4.6-29.4-3.1zm50.1-77.7c-3.8 2.4-6.7 4.3-9.6 6.1-9 5.4-14.9 13.3-15.3 23.9-0.6 19.9-11.7 32.1-27.5 41.7-3.7 2.3-5.6 1.4-7.9-1.6-4.8-6.7-6.2-14.4-4.8-22.2 4.5-24.1 18.5-40.4 41.3-48.9 7.6-2.8 15.5-2.9 23.8 1z"/><path class="a" d="m1354.1 656.6c1.1-3.4 1.8-6.2 2.8-9 3.8-9.4 2.5-18.4-2.7-27-5.3-8.8-6.3-17.8-1.5-27.2 1.2-2.2 2.6-3 5.1-2.8 8 0.5 12.9 5.3 15.8 12.1 6 14.4 5.5 28.9-1.7 42.8-3.4 6.6-8.8 11-17.8 11.1zm-5.7-65.2c-1.1 3-1.8 5.3-2.7 7.5-2.7 7-2.6 14 1.9 20.1 8.2 11.3 7.3 22.9 2.7 35.1-1.1 3-2.6 3.3-5.1 2.6-5.7-1.7-9.8-5.3-12.4-10.4-7.9-15.3-7.2-30.5 1.9-45.1 3-4.9 7.4-8.4 13.7-9.8z"/><path class="a" d="m260.9 105.1c-4.8-1.3-8.9-2.2-12.7-3.5-13.6-4.8-26.3-2.5-38.1 5.2-12.2 8-24.9 9.8-38.4 3.4-3.2-1.5-4.4-3.5-4.3-7 0.4-11.3 6.9-18.5 16.4-22.9 20.1-9.2 40.6-9.2 60.6 0.2 9.6 4.6 16 12 16.5 24.6zm-91.8 11.3c4.3 1.4 7.5 2.4 10.7 3.5 10 3.4 19.9 2.9 28.3-3.6 15.6-12.3 32.1-11.6 49.6-5.6 4.2 1.4 4.7 3.4 3.8 7.1-2.1 8-7 14-14 17.9-21.3 12-42.9 11.7-64-0.4-7-4-12.1-10-14.4-18.9z"/><path class="a" d="m1251.3 226.9c2.7-3 4.7-5.6 7.1-7.9 8.4-8.1 11.3-18 10-29.4-1.4-11.8 1.8-21.6 11.4-29 2.3-1.8 4.1-1.9 6.6-0.5 8.1 4.4 11 11.8 10.8 20.2-0.6 17.9-8 32.7-22.1 43.7-6.7 5.3-14.5 7.2-23.8 2.9zm24.9-70.5c-2.6 2.6-4.4 4.6-6.4 6.5-6.1 6-9.3 13.3-7.6 21.7 3.3 15.8-3.2 27.5-13.8 37.9-2.6 2.5-4.2 2.2-6.6 0.2-5.1-4.4-7.6-10.2-8-16.7-1-19.8 7-35.2 23.4-46.1 5.5-3.6 11.7-5.1 19-3.5z"/><path class="a" d="m17.5 71.2c2.7-3 4.8-5.6 7.2-7.9 8.4-8.1 11.3-18.1 9.9-29.5-1.4-11.7 1.9-21.5 11.4-28.9 2.3-1.8 4.2-1.9 6.7-0.5 8 4.4 10.9 11.8 10.7 20.2-0.5 17.9-7.9 32.7-22 43.7-6.8 5.2-14.5 7.2-23.9 2.9zm24.9-70.5c-2.5 2.6-4.4 4.6-6.4 6.5-6.1 6-9.3 13.3-7.5 21.7 3.3 15.8-3.2 27.4-13.9 37.9-2.5 2.5-4.2 2.2-6.5 0.1-5.1-4.4-7.7-10.2-8-16.6-1-19.9 7-35.3 23.4-46.1 5.4-3.6 11.6-5.1 18.9-3.5z"/><path class="a" d="m1470.3 340c-5 0.3-9.1 0.8-13.2 0.8-14.5-0.2-25.7 6-34.4 17.1-9 11.5-20.4 17.3-35.3 15.6-3.5-0.5-5.3-1.9-6.3-5.3-3.2-10.8 0.6-19.8 8.1-26.9 16.1-15.2 35.5-21.8 57.5-19.2 10.5 1.2 19.1 6.1 23.6 17.9zm-83.4 40.2c4.6-0.1 7.9-0.2 11.3-0.2 10.6 0 19.8-3.6 25.6-12.5 10.8-16.6 26.7-21.2 45.2-21.2 4.4 0.1 5.6 1.8 5.9 5.5 0.6 8.3-2.1 15.5-7.5 21.5-16.4 18.2-36.8 24.8-60.7 20.2-8-1.6-14.7-5.6-19.8-13.3z"/><path class="a" d="m336.9 583.9c-2.3-4.4-4.5-8-6.1-11.7-5.7-13.3-15.9-21-29.6-24.5-14.2-3.6-24-11.7-28.5-25.9-1-3.5-0.4-5.7 2.3-7.9 8.6-7.4 18.3-7.5 27.9-3.5 20.4 8.5 34.3 23.6 40.9 44.8 3.1 10.1 2 19.8-6.9 28.7zm-70.6-59.9c2 4.1 3.5 7.2 4.8 10.3 4.3 9.7 11.3 16.6 21.8 18.3 19.6 3.2 30.2 15.8 37.6 32.7 1.8 4.1 0.8 5.8-2.6 7.6-7.3 4-15 4.4-22.7 1.9-23.2-7.6-37.6-23.7-43-47.3-1.8-7.9-0.8-15.8 4.1-23.5z"/><path class="a" d="m138.9 339c-2.3-4.4-4.4-8-6-11.8-5.7-13.2-15.9-21-29.6-24.5-14.2-3.6-24-11.6-28.5-25.9-1-3.4-0.4-5.6 2.3-7.9 8.6-7.3 18.3-7.4 27.9-3.4 20.4 8.5 34.3 23.6 40.9 44.7 3.1 10.1 2 19.9-7 28.8zm-70.5-59.9c1.9 4.1 3.5 7.1 4.8 10.2 4.2 9.7 11.3 16.6 21.8 18.3 19.6 3.3 30.2 15.9 37.6 32.8 1.8 4 0.7 5.8-2.6 7.6-7.3 3.9-15 4.3-22.7 1.8-23.2-7.6-37.6-23.6-43-47.3-1.8-7.9-0.8-15.7 4.1-23.4z"/></g></svg>